HIERARCHY
ROOT Hips
{
    OFFSET 0.000000 0.000000 0.000000
    CHANNELS 6 Xposition Yposition Zposition Zrotation Xrotation Yrotation
    JOINT Spine
    {
        OFFSET 0.000001 7.292995 0.000000
        CHANNELS 3 Zrotation Xrotation Yrotation
        JOINT Spine1
        {
            OFFSET -0.000000 20.255388 0.000001
            CHANNELS 3 Zrotation Xrotation Yrotation
            JOINT Neck
            {
                OFFSET 0.000001 20.786594 0.000000
                CHANNELS 3 Zrotation Xrotation Yrotation
                JOINT Head
                {
                    OFFSET 0.000003 12.530788 1.776080
                    CHANNELS 3 Zrotation Xrotation Yrotation
                    End Site
                    {
                        OFFSET 0.000000 17.760757 0.000000
                    }
                }
            }
            JOINT LeftShoulder
            {
                OFFSET 3.550532 15.465697 -0.908801
                CHANNELS 3 Zrotation Xrotation Yrotation
                JOINT LeftArm
                {
                    OFFSET 12.513301 -0.000005 0.000001
                    CHANNELS 3 Zrotation Xrotation Yrotation
                    JOINT LeftForeArm
                    {
                        OFFSET 24.225992 0.000005 0.000000
                        CHANNELS 3 Zrotation Xrotation Yrotation
                        JOINT LeftHand
                        {
                            OFFSET 20.711395 -0.000004 0.000000
                            CHANNELS 3 Zrotation Xrotation Yrotation
                            JOINT LeftHandThumb1
                            {
                                OFFSET 2.121964 -2.411326 3.375861
                                CHANNELS 3 Zrotation Xrotation Yrotation
                                JOINT LeftHandThumb2
                                {
                                    OFFSET 2.803212 -0.000001 -0.000002
                                    CHANNELS 3 Zrotation Xrotation Yrotation
                                    JOINT LeftHandThumb3
                                    {
                                        OFFSET 2.395929 0.000000 0.000000
                                        CHANNELS 3 Zrotation Xrotation Yrotation
                                        End Site
                                        {
                                            OFFSET 2.127676 0.000000 0.000000
                                        }
                                    }
                                }
                            }
                            JOINT LeftHandIndex1
                            {
                                OFFSET 8.680776 0.000004 3.375861
                                CHANNELS 3 Zrotation Xrotation Yrotation
                                JOINT LeftHandIndex2
                                {
                                    OFFSET 4.218180 -0.000002 0.000001
                                    CHANNELS 3 Zrotation Xrotation Yrotation
                                    JOINT LeftHandIndex3
                                    {
                                        OFFSET 2.109090 0.000001 -0.000000
                                        CHANNELS 3 Zrotation Xrotation Yrotation
                                        End Site
                                        {
                                            OFFSET 1.872952 0.000000 0.000000
                                        }
                                    }
                                }
                            }
                            JOINT LeftHandMiddle1
                            {
                                OFFSET 8.680775 0.000001 1.118862
                                CHANNELS 3 Zrotation Xrotation Yrotation
                                JOINT LeftHandMiddle2
                                {
                                    OFFSET 4.640000 0.000002 -0.000000
                                    CHANNELS 3 Zrotation Xrotation Yrotation
                                    JOINT LeftHandMiddle3
                                    {
                                        OFFSET 2.530906 0.000005 0.000000
                                        CHANNELS 3 Zrotation Xrotation Yrotation
                                        End Site
                                        {
                                            OFFSET 2.247544 0.000000 0.000000
                                        }
                                    }
                                }
                            }
                            JOINT LeftHandRing1
                            {
                                OFFSET 8.198514 -0.000004 -1.118859
                                CHANNELS 3 Zrotation Xrotation Yrotation
                                JOINT LeftHandRing2
                                {
                                    OFFSET 4.218182 -0.000003 -0.000001
                                    CHANNELS 3 Zrotation Xrotation Yrotation
                                    JOINT LeftHandRing3
                                    {
                                        OFFSET 2.109086 0.000004 0.000001
                                        CHANNELS 3 Zrotation Xrotation Yrotation
                                        End Site
                                        {
                                            OFFSET 1.872952 0.000000 0.000000
                                        }
                                    }
                                }
                            }
                            JOINT LeftHandPinky1
                            {
                                OFFSET 7.716242 0.000005 -3.375859
                                CHANNELS 3 Zrotation Xrotation Yrotation
                                JOINT LeftHandPinky2
                                {
                                    OFFSET 3.374535 0.000004 0.000002
                                    CHANNELS 3 Zrotation Xrotation Yrotation
                                    JOINT LeftHandPinky3
                                    {
                                        OFFSET 1.687275 0.000002 -0.000001
                                        CHANNELS 3 Zrotation Xrotation Yrotation
                                        End Site
                                        {
                                            OFFSET 1.498360 0.000000 0.000000
                                        }
                                    }
                                }
                            }
                        }
                    }
                }
            }
            JOINT RightShoulder
            {
                OFFSET -3.550531 15.465694 -0.908802
                CHANNELS 3 Zrotation Xrotation Yrotation
                JOINT RightArm
                {
                    OFFSET -12.513298 -0.000004 0.000001
                    CHANNELS 3 Zrotation Xrotation Yrotation
                    JOINT RightForeArm
                    {
                        OFFSET -24.225996 -0.000002 -0.000000
                        CHANNELS 3 Zrotation Xrotation Yrotation
                        JOINT RightHand
                        {
                            OFFSET -20.711401 0.000005 0.000001
                            CHANNELS 3 Zrotation Xrotation Yrotation
                            JOINT RightHandThumb1
                            {
                                OFFSET -2.121970 -2.411334 3.375861
                                CHANNELS 3 Zrotation Xrotation Yrotation
                                JOINT RightHandThumb2
                                {
                                    OFFSET -2.803210 0.000003 -0.000004
                                    CHANNELS 3 Zrotation Xrotation Yrotation
                                    JOINT RightHandThumb3
                                    {
                                        OFFSET -2.395930 -0.000001 0.000002
                                        CHANNELS 3 Zrotation Xrotation Yrotation
                                        End Site
                                        {
                                            OFFSET -2.127676 0.000000 0.000000
                                        }
                                    }
                                }
                            }
                            JOINT RightHandIndex1
                            {
                                OFFSET -8.680779 0.000001 3.375860
                                CHANNELS 3 Zrotation Xrotation Yrotation
                                JOINT RightHandIndex2
                                {
                                    OFFSET -4.218180 0.000000 -0.000000
                                    CHANNELS 3 Zrotation Xrotation Yrotation
                                    JOINT RightHandIndex3
                                    {
                                        OFFSET -2.109090 0.000001 -0.000000
                                        CHANNELS 3 Zrotation Xrotation Yrotation
                                        End Site
                                        {
                                            OFFSET -1.872952 0.000000 0.000000
                                        }
                                    }
                                }
                            }
                            JOINT RightHandMiddle1
                            {
                                OFFSET -8.680780 0.000001 1.118860
                                CHANNELS 3 Zrotation Xrotation Yrotation
                                JOINT RightHandMiddle2
                                {
                                    OFFSET -4.640000 -0.000002 0.000001
                                    CHANNELS 3 Zrotation Xrotation Yrotation
                                    JOINT RightHandMiddle3
                                    {
                                        OFFSET -2.530910 0.000001 -0.000000
                                        CHANNELS 3 Zrotation Xrotation Yrotation
                                        End Site
                                        {
                                            OFFSET -2.247544 0.000000 0.000000
                                        }
                                    }
                                }
                            }
                            JOINT RightHandRing1
                            {
                                OFFSET -8.198519 0.000005 -1.118860
                                CHANNELS 3 Zrotation Xrotation Yrotation
                                JOINT RightHandRing2
                                {
                                    OFFSET -4.218180 -0.000006 0.000000
                                    CHANNELS 3 Zrotation Xrotation Yrotation
                                    JOINT RightHandRing3
                                    {
                                        OFFSET -2.109090 0.000001 -0.000000
                                        CHANNELS 3 Zrotation Xrotation Yrotation
                                        End Site
                                        {
                                            OFFSET -1.872952 0.000000 0.000000
                                        }
                                    }
                                }
                            }
                            JOINT RightHandPinky1
                            {
                                OFFSET -7.716248 -0.000002 -3.375859
                                CHANNELS 3 Zrotation Xrotation Yrotation
                                JOINT RightHandPinky2
                                {
                                    OFFSET -3.374540 0.000000 0.000000
                                    CHANNELS 3 Zrotation Xrotation Yrotation
                                    JOINT RightHandPinky3
                                    {
                                        OFFSET -1.687270 0.000004 0.000001
                                        CHANNELS 3 Zrotation Xrotation Yrotation
                                        End Site
                                        {
                                            OFFSET -1.498360 0.000000 0.000000
                                        }
                                    }
                                }
                            }
                        }
                    }
                }
            }
        }
    }
    JOINT LeftUpLeg
    {
        OFFSET 8.880376 -0.000000 -0.000000
        CHANNELS 3 Zrotation Xrotation Yrotation
        JOINT LeftLeg
        {
            OFFSET -0.000001 -40.387405 -0.000001
            CHANNELS 3 Zrotation Xrotation Yrotation
            JOINT LeftFoot
            {
                OFFSET -0.000001 -36.911297 -0.000001
                CHANNELS 3 Zrotation Xrotation Yrotation
                JOINT LeftToeBase
                {
                    OFFSET -0.000002 -5.772240 13.320604
                    CHANNELS 3 Zrotation Xrotation Yrotation
                    End Site
                    {
                        OFFSET 0.000000 0.000000 3.552151
                    }
                }
            }
        }
    }
    JOINT RightUpLeg
    {
        OFFSET -8.880376 0.000000 0.000000
        CHANNELS 3 Zrotation Xrotation Yrotation
        JOINT RightLeg
        {
            OFFSET -0.000001 -40.387390 0.000000
            CHANNELS 3 Zrotation Xrotation Yrotation
            JOINT RightFoot
            {
                OFFSET 0.000002 -36.911297 -0.000001
                CHANNELS 3 Zrotation Xrotation Yrotation
                JOINT RightToeBase
                {
                    OFFSET 0.000001 -5.772238 13.320600
                    CHANNELS 3 Zrotation Xrotation Yrotation
                    End Site
                    {
                        OFFSET 0.000000 0.000000 3.552151
                    }
                }
            }
        }
    }
}
MOTION
Frames: 5
Frame Time: 0.013889
120.065918    83.333359    88.393661    -1.189455    6.307275    41.861183    -0.682636    -22.600187    -1.775835    1.107007    14.859446    -1.868587    -1.415628    -8.006701    2.173156    -0.203831    0.895378    2.395553    -4.034513    4.052467    -2.826974    -59.614498    33.047081    -19.259636    -3.426753    -18.929331    -10.458188    -9.163620    5.091606    12.703678    30.504591    34.999630    -41.610218    -10.241733    0.718029    23.307039    -0.000000    0.000000    -0.000000    -8.441719    17.817333    -0.777865    -8.034088    -0.000000    -0.000001    -8.034091    0.000001    -0.000001    -6.910949    8.935672    -0.610423    -6.826702    -0.000000    -0.000000    -6.826684    0.000000    -0.000000    -6.299938    -8.946533    -1.062996    -6.222972    -0.000002    -0.000003    -6.222984    0.000000    0.000001    -5.906476    -17.910517    -1.981086    -5.619283    0.000002    0.000002    -5.619283    0.000001    0.000000    4.867004    4.825446    1.412541    67.623749    21.736156    3.239399    5.013844    -27.274405    10.838092    -8.133379    -4.430638    -12.632165    -35.929688    31.185123    42.229366    13.654815    -0.752812    -23.305998    -0.000000    0.000000    -0.000000    13.839483    17.509775    3.723864    13.186384    0.000002    0.000002    13.186377    -0.000006    -0.000006    13.363533    8.760143    1.909373    13.204814    0.000000    0.000002    13.204818    -0.000001    0.000004    13.372864    -8.759809    -0.440471    13.214027    -0.000001    -0.000001    13.214034    0.000001    0.000002    13.878057    -17.507042    -0.777288    13.223250    -0.000000    0.000002    13.223255    0.000002    0.000001    1.586961    -8.837268    14.655292    0.000000    15.130049    -0.000003    -0.935726    -4.171451    1.480906    0.000000    -1.502920    -0.000000    2.946768    -1.727483    -19.129032    0.000001    3.814715    0.000003    12.540412    -11.600803    -1.798882    0.000001    -0.742176    0.000001    
120.081917    83.332916    88.378876    -1.271047    6.296906    41.937065    -0.670837    -22.601906    -1.745028    1.091291    14.854938    -1.837007    -1.464700    -7.953897    2.129256    -0.213275    0.927461    2.356673    -4.000616    4.025956    -2.772726    -59.543556    32.835918    -19.106117    -3.403893    -18.642683    -10.540311    -9.302286    5.205284    12.566644    30.516483    34.988655    -41.668411    -10.279991    0.701545    23.307507    -0.000000    0.000000    -0.000000    -8.477072    17.815802    -0.784918    -8.067766    -0.000001    0.000001    -8.067763    -0.000001    0.000002    -6.937263    8.935182    -0.615271    -6.852682    -0.000000    0.000001    -6.852671    -0.000000    0.000001    -6.322354    -8.946157    -1.039425    -6.245127    0.000001    0.000003    -6.245113    0.000002    -0.000002    -5.925687    -17.909933    -1.932874    -5.637580    -0.000001    -0.000000    -5.637590    -0.000001    0.000002    4.852506    4.818402    1.376462    67.621643    22.096724    3.344910    4.999446    -27.211967    10.829900    -7.523837    -4.337731    -12.812423    -35.971699    31.161280    42.204166    13.639903    -0.746386    -23.306190    -0.000000    0.000000    -0.000000    13.885967    17.506479    3.830178    13.230817    -0.000000    -0.000002    13.230842    -0.000000    -0.000003    13.444305    8.757250    1.957229    13.284682    0.000004    0.000001    13.284668    -0.000006    -0.000008    13.471523    -8.756269    -0.402527    13.311609    0.000003    0.000001    13.311614    0.000001    0.000002    13.998596    -17.498463    -0.695190    13.338536    0.000001    0.000001    13.338531    0.000001    0.000002    1.623009    -8.880801    14.592923    0.000001    15.103155    -0.000001    -0.928320    -4.175949    1.501601    0.000000    -1.433760    0.000013    3.000669    -1.775913    -19.175333    0.000001    3.812180    0.000004    12.478589    -11.520061    -1.827642    0.000001    -0.709652    0.000000    
120.087730    83.327950    88.369621    -1.337809    6.283671    41.988201    -0.657080    -22.598635    -1.709503    1.054597    14.850472    -1.795846    -1.442603    -7.933573    2.092777    -0.180397    0.930815    2.315675    -3.977952    3.971840    -2.754122    -59.424389    32.607868    -19.019497    -3.384977    -18.426502    -10.598885    -9.358763    5.227511    12.609221    30.505835    34.996140    -41.668034    -10.318078    0.685141    23.307968    -0.000000    0.000000    -0.000000    -8.511510    17.814302    -0.790855    -8.100604    -0.000000    0.000000    -8.100595    0.000000    0.000001    -6.961689    8.934727    -0.619714    -6.876825    -0.000001    0.000000    -6.876815    0.000000    0.000001    -6.342383    -8.945813    -1.016378    -6.264915    0.000001    -0.000002    -6.264936    -0.000001    0.000003    -5.941913    -17.909443    -1.885547    -5.653030    -0.000002    -0.000000    -5.653024    0.000003    0.000000    4.842573    4.835190    1.427012    67.629883    22.334311    3.411011    4.974555    -27.168423    10.792572    -7.112368    -4.257470    -13.010098    -35.995232    31.150076    42.178917    13.632801    -0.743334    -23.306278    -0.000000    0.000000    -0.000000    13.871699    17.507498    3.941397    13.217190    -0.000001    0.000002    13.217214    0.000002    -0.000011    13.471228    8.756281    2.006593    13.311316    0.000000    0.000002    13.311316    -0.000002    -0.000007    13.518812    -8.754560    -0.382428    13.358363    -0.000004    0.000000    13.358383    -0.000001    0.000002    14.068537    -17.493450    -0.648367    13.405412    -0.000002    -0.000001    13.405441    0.000002    0.000003    1.663778    -8.910070    14.548971    0.000001    15.075279    0.000002    -0.924816    -4.189857    1.510769    -0.000000    -1.409875    -0.000005    3.054013    -1.813571    -19.242214    -0.000000    3.805197    -0.000005    12.423923    -11.454871    -1.835537    -0.000004    -0.677699    -0.000004    
120.092285    83.326759    88.363716    -1.403537    6.272596    42.030716    -0.644826    -22.608183    -1.676961    1.023517    14.847729    -1.758714    -1.451420    -7.887879    2.060716    -0.177486    0.952314    2.283141    -3.958029    3.920146    -2.718940    -59.263420    32.328823    -18.924620    -3.386824    -18.213636    -10.721443    -9.470817    5.255536    12.609119    30.511108    34.992256    -41.671837    -10.347187    0.672606    23.308310    -0.000000    0.000000    -0.000000    -8.593039    17.810728    -0.777012    -8.178290    0.000000    0.000001    -8.178288    0.000000    -0.000001    -7.010526    8.933807    -0.617678    -6.925056    0.000000    -0.000001    -6.925066    0.000000    -0.000001    -6.376317    -8.945235    -0.991492    -6.298448    0.000001    0.000001    -6.298438    0.000002    -0.000002    -5.961665    -17.908836    -1.831295    -5.671826    0.000003    0.000000    -5.671825    0.000000    0.000000    4.797761    4.852568    1.463721    67.605217    22.593601    3.484139    4.958025    -27.069321    10.792897    -6.727407    -4.181467    -13.220327    -36.042046    31.122263    42.158039    13.617138    -0.736575    -23.306486    -0.000000    0.000000    -0.000000    13.831026    17.510368    4.078566    13.178282    0.000006    -0.000006    13.178284    -0.000001    0.000010    13.471942    8.756258    2.068954    13.312011    -0.000000    -0.000003    13.312020    -0.000002    0.000011    13.539545    -8.753808    -0.358998    13.378881    0.000003    -0.000002    13.378888    -0.000000    -0.000002    14.110680    -17.490414    -0.595140    13.445751    -0.000000    -0.000002    13.445752    0.000001    -0.000004    1.702083    -8.925595    14.539779    -0.000001    15.022537    0.000010    -0.923131    -4.196775    1.506987    0.000000    -1.395026    -0.000010    3.108869    -1.856332    -19.279379    0.000000    3.813595    0.000002    12.327257    -11.361691    -1.845664    -0.000005    -0.635413    -0.000007    
120.105217    83.321236    88.349007    -1.489920    6.267008    42.073643    -0.623564    -22.617392    -1.621064    1.014804    14.846057    -1.706500    -1.500908    -7.847498    1.997457    -0.185777    0.968829    2.225032    -3.927324    3.862884    -2.698299    -59.013176    31.933832    -18.809059    -3.382288    -17.849003    -10.913732    -9.577429    5.441151    12.581719    30.526808    34.979961    -41.699955    -10.380472    0.658256    23.308701    -0.000000    0.000000    -0.000000    -8.727304    17.804781    -0.759798    -8.306273    -0.000001    0.000002    -8.306262    -0.000000    0.000001    -7.083232    8.932431    -0.618311    -6.996899    -0.000000    0.000001    -6.996897    -0.000000    0.000001    -6.420614    -8.944471    -0.975636    -6.342211    0.000000    0.000000    -6.342204    0.000002    0.000001    -5.978146    -17.908335    -1.790873    -5.687523    0.000001    -0.000002    -5.687530    -0.000000    0.000002    4.725445    4.866447    1.503094    67.507950    22.920986    3.582210    4.919615    -26.927811    10.761663    -6.157729    -4.092633    -13.478728    -36.055676    31.108179    42.183655    13.613348    -0.734950    -23.306528    -0.000000    0.000000    -0.000000    13.833090    17.510229    4.165053    13.180269    -0.000004    -0.000001    13.180249    0.000002    0.000003    13.514914    8.754699    2.105959    13.354534    0.000001    -0.000002    13.354531    0.000005    0.000010    13.603034    -8.751501    -0.318395    13.441668    -0.000002    0.000001    13.441661    0.000001    -0.000002    14.197510    -17.484137    -0.507167    13.528790    0.000000    -0.000002    13.528806    0.000001    -0.000003    1.739019    -8.941755    14.535551    -0.000001    14.932137    0.000001    -0.908254    -4.201057    1.500012    0.000000    -1.373038    0.000006    3.172056    -1.925598    -19.320755    -0.000000    3.815124    -0.000003    12.100778    -11.209037    -1.900836    -0.000002    -0.580318    -0.000005    
